<mxfile host="app.diagrams.net" agent="Mozilla/5.0 (Macintosh; Intel Mac OS X 10_15_7) AppleWebKit/537.36 (KHTML, like Gecko) Chrome/139.0.0.0 Safari/537.36" version="28.1.1">
  <diagram name="Page-1" id="uM2RWV-hZdUj_f4ezHtT">
    <mxGraphModel dx="1207" dy="949" grid="1" gridSize="10" guides="1" tooltips="1" connect="1" arrows="1" fold="1" page="1" pageScale="1" pageWidth="850" pageHeight="1100" math="0" shadow="0">
      <root>
        <mxCell id="0" />
        <mxCell id="1" parent="0" />
        <mxCell id="Uxrc10yOzOFZdtbdVySu-49" style="edgeStyle=orthogonalEdgeStyle;rounded=0;orthogonalLoop=1;jettySize=auto;html=1;" edge="1" parent="1" source="Uxrc10yOzOFZdtbdVySu-6" target="Uxrc10yOzOFZdtbdVySu-5">
          <mxGeometry relative="1" as="geometry">
            <Array as="points">
              <mxPoint x="140" y="240" />
              <mxPoint x="140" y="240" />
            </Array>
          </mxGeometry>
        </mxCell>
        <mxCell id="Uxrc10yOzOFZdtbdVySu-6" value="" style="outlineConnect=0;dashed=0;verticalLabelPosition=bottom;verticalAlign=top;align=center;html=1;shape=mxgraph.aws3.internet_2;fillColor=#D2D3D3;gradientColor=none;" vertex="1" parent="1">
          <mxGeometry x="20" y="210.5" width="79.5" height="54" as="geometry" />
        </mxCell>
        <mxCell id="Uxrc10yOzOFZdtbdVySu-11" value="" style="group" vertex="1" connectable="0" parent="1">
          <mxGeometry x="425" y="30" width="243" height="120" as="geometry" />
        </mxCell>
        <mxCell id="Uxrc10yOzOFZdtbdVySu-10" value="" style="edgeStyle=orthogonalEdgeStyle;rounded=0;orthogonalLoop=1;jettySize=auto;html=1;" edge="1" parent="Uxrc10yOzOFZdtbdVySu-11" source="Uxrc10yOzOFZdtbdVySu-4" target="Uxrc10yOzOFZdtbdVySu-1">
          <mxGeometry relative="1" as="geometry">
            <Array as="points">
              <mxPoint x="165" y="47" />
              <mxPoint x="165" y="47" />
            </Array>
          </mxGeometry>
        </mxCell>
        <mxCell id="Uxrc10yOzOFZdtbdVySu-4" value="" style="image;aspect=fixed;html=1;points=[];align=center;fontSize=12;image=img/lib/azure2/databases/Azure_Database_PostgreSQL_Server.svg;" vertex="1" parent="Uxrc10yOzOFZdtbdVySu-11">
          <mxGeometry x="195" y="9" width="48" height="64" as="geometry" />
        </mxCell>
        <mxCell id="Uxrc10yOzOFZdtbdVySu-8" value="" style="group" vertex="1" connectable="0" parent="Uxrc10yOzOFZdtbdVySu-11">
          <mxGeometry width="130" height="120" as="geometry" />
        </mxCell>
        <mxCell id="Uxrc10yOzOFZdtbdVySu-1" value="" style="outlineConnect=0;dashed=0;verticalLabelPosition=bottom;verticalAlign=top;align=center;html=1;shape=mxgraph.aws3.ec2;fillColor=#F58534;gradientColor=none;" vertex="1" parent="Uxrc10yOzOFZdtbdVySu-8">
          <mxGeometry x="20" width="76.5" height="93" as="geometry" />
        </mxCell>
        <mxCell id="Uxrc10yOzOFZdtbdVySu-2" value="EC2 Product Service" style="text;html=1;align=center;verticalAlign=middle;resizable=0;points=[];autosize=1;strokeColor=none;fillColor=none;" vertex="1" parent="Uxrc10yOzOFZdtbdVySu-8">
          <mxGeometry y="90" width="130" height="30" as="geometry" />
        </mxCell>
        <mxCell id="Uxrc10yOzOFZdtbdVySu-9" style="edgeStyle=orthogonalEdgeStyle;rounded=0;orthogonalLoop=1;jettySize=auto;html=1;entryX=0.04;entryY=0.587;entryDx=0;entryDy=0;entryPerimeter=0;" edge="1" parent="Uxrc10yOzOFZdtbdVySu-11" source="Uxrc10yOzOFZdtbdVySu-1" target="Uxrc10yOzOFZdtbdVySu-4">
          <mxGeometry relative="1" as="geometry" />
        </mxCell>
        <mxCell id="Uxrc10yOzOFZdtbdVySu-12" value="" style="group" vertex="1" connectable="0" parent="1">
          <mxGeometry x="425" y="432" width="243" height="120" as="geometry" />
        </mxCell>
        <mxCell id="Uxrc10yOzOFZdtbdVySu-13" value="" style="edgeStyle=orthogonalEdgeStyle;rounded=0;orthogonalLoop=1;jettySize=auto;html=1;" edge="1" parent="Uxrc10yOzOFZdtbdVySu-12" source="Uxrc10yOzOFZdtbdVySu-14" target="Uxrc10yOzOFZdtbdVySu-16">
          <mxGeometry relative="1" as="geometry">
            <Array as="points">
              <mxPoint x="165" y="47" />
              <mxPoint x="165" y="47" />
            </Array>
          </mxGeometry>
        </mxCell>
        <mxCell id="Uxrc10yOzOFZdtbdVySu-14" value="" style="image;aspect=fixed;html=1;points=[];align=center;fontSize=12;image=img/lib/azure2/databases/Azure_Database_PostgreSQL_Server.svg;" vertex="1" parent="Uxrc10yOzOFZdtbdVySu-12">
          <mxGeometry x="195" y="9" width="48" height="64" as="geometry" />
        </mxCell>
        <mxCell id="Uxrc10yOzOFZdtbdVySu-15" value="" style="group" vertex="1" connectable="0" parent="Uxrc10yOzOFZdtbdVySu-12">
          <mxGeometry width="140" height="120" as="geometry" />
        </mxCell>
        <mxCell id="Uxrc10yOzOFZdtbdVySu-16" value="" style="outlineConnect=0;dashed=0;verticalLabelPosition=bottom;verticalAlign=top;align=center;html=1;shape=mxgraph.aws3.ec2;fillColor=#F58534;gradientColor=none;" vertex="1" parent="Uxrc10yOzOFZdtbdVySu-15">
          <mxGeometry x="20" width="76.5" height="93" as="geometry" />
        </mxCell>
        <mxCell id="Uxrc10yOzOFZdtbdVySu-17" value="EC2 Auth JWT Service" style="text;html=1;align=center;verticalAlign=middle;resizable=0;points=[];autosize=1;strokeColor=none;fillColor=none;" vertex="1" parent="Uxrc10yOzOFZdtbdVySu-15">
          <mxGeometry x="-10" y="90" width="150" height="30" as="geometry" />
        </mxCell>
        <mxCell id="Uxrc10yOzOFZdtbdVySu-18" style="edgeStyle=orthogonalEdgeStyle;rounded=0;orthogonalLoop=1;jettySize=auto;html=1;entryX=0.04;entryY=0.587;entryDx=0;entryDy=0;entryPerimeter=0;" edge="1" parent="Uxrc10yOzOFZdtbdVySu-12" source="Uxrc10yOzOFZdtbdVySu-16" target="Uxrc10yOzOFZdtbdVySu-14">
          <mxGeometry relative="1" as="geometry" />
        </mxCell>
        <mxCell id="Uxrc10yOzOFZdtbdVySu-19" value="" style="group" vertex="1" connectable="0" parent="1">
          <mxGeometry x="440" y="582" width="243" height="120" as="geometry" />
        </mxCell>
        <mxCell id="Uxrc10yOzOFZdtbdVySu-20" value="" style="edgeStyle=orthogonalEdgeStyle;rounded=0;orthogonalLoop=1;jettySize=auto;html=1;" edge="1" parent="Uxrc10yOzOFZdtbdVySu-19" source="Uxrc10yOzOFZdtbdVySu-21" target="Uxrc10yOzOFZdtbdVySu-23">
          <mxGeometry relative="1" as="geometry">
            <Array as="points">
              <mxPoint x="165" y="47" />
              <mxPoint x="165" y="47" />
            </Array>
          </mxGeometry>
        </mxCell>
        <mxCell id="Uxrc10yOzOFZdtbdVySu-21" value="" style="image;aspect=fixed;html=1;points=[];align=center;fontSize=12;image=img/lib/azure2/databases/Azure_Database_PostgreSQL_Server.svg;" vertex="1" parent="Uxrc10yOzOFZdtbdVySu-19">
          <mxGeometry x="195" y="9" width="48" height="64" as="geometry" />
        </mxCell>
        <mxCell id="Uxrc10yOzOFZdtbdVySu-22" value="" style="group" vertex="1" connectable="0" parent="Uxrc10yOzOFZdtbdVySu-19">
          <mxGeometry width="130" height="120" as="geometry" />
        </mxCell>
        <mxCell id="Uxrc10yOzOFZdtbdVySu-23" value="" style="outlineConnect=0;dashed=0;verticalLabelPosition=bottom;verticalAlign=top;align=center;html=1;shape=mxgraph.aws3.ec2;fillColor=#F58534;gradientColor=none;" vertex="1" parent="Uxrc10yOzOFZdtbdVySu-22">
          <mxGeometry x="20" width="76.5" height="93" as="geometry" />
        </mxCell>
        <mxCell id="Uxrc10yOzOFZdtbdVySu-24" value="EC2 User Service" style="text;html=1;align=center;verticalAlign=middle;resizable=0;points=[];autosize=1;strokeColor=none;fillColor=none;" vertex="1" parent="Uxrc10yOzOFZdtbdVySu-22">
          <mxGeometry x="5" y="90" width="120" height="30" as="geometry" />
        </mxCell>
        <mxCell id="Uxrc10yOzOFZdtbdVySu-25" style="edgeStyle=orthogonalEdgeStyle;rounded=0;orthogonalLoop=1;jettySize=auto;html=1;entryX=0.04;entryY=0.587;entryDx=0;entryDy=0;entryPerimeter=0;" edge="1" parent="Uxrc10yOzOFZdtbdVySu-19" source="Uxrc10yOzOFZdtbdVySu-23" target="Uxrc10yOzOFZdtbdVySu-21">
          <mxGeometry relative="1" as="geometry" />
        </mxCell>
        <mxCell id="Uxrc10yOzOFZdtbdVySu-28" value="" style="group" vertex="1" connectable="0" parent="1">
          <mxGeometry x="236.5" y="203.5" width="83.5" height="136.5" as="geometry" />
        </mxCell>
        <mxCell id="Uxrc10yOzOFZdtbdVySu-5" value="" style="outlineConnect=0;dashed=0;verticalLabelPosition=bottom;verticalAlign=top;align=center;html=1;shape=mxgraph.aws3.api_gateway;fillColor=#D9A741;gradientColor=none;" vertex="1" parent="Uxrc10yOzOFZdtbdVySu-28">
          <mxGeometry x="3.6531249999999997" width="79.846875" height="93" as="geometry" />
        </mxCell>
        <mxCell id="Uxrc10yOzOFZdtbdVySu-27" value="Amazon Api Gateway" style="text;html=1;align=center;verticalAlign=middle;whiteSpace=wrap;rounded=0;" vertex="1" parent="Uxrc10yOzOFZdtbdVySu-28">
          <mxGeometry y="106.5" width="83.5" height="30" as="geometry" />
        </mxCell>
        <mxCell id="Uxrc10yOzOFZdtbdVySu-33" value="" style="group" vertex="1" connectable="0" parent="1">
          <mxGeometry x="430" y="159" width="243" height="135" as="geometry" />
        </mxCell>
        <mxCell id="Uxrc10yOzOFZdtbdVySu-34" value="" style="edgeStyle=orthogonalEdgeStyle;rounded=0;orthogonalLoop=1;jettySize=auto;html=1;" edge="1" parent="Uxrc10yOzOFZdtbdVySu-33" source="Uxrc10yOzOFZdtbdVySu-35" target="Uxrc10yOzOFZdtbdVySu-37">
          <mxGeometry relative="1" as="geometry">
            <Array as="points">
              <mxPoint x="165" y="47" />
              <mxPoint x="165" y="47" />
            </Array>
          </mxGeometry>
        </mxCell>
        <mxCell id="Uxrc10yOzOFZdtbdVySu-35" value="" style="image;aspect=fixed;html=1;points=[];align=center;fontSize=12;image=img/lib/azure2/databases/Azure_Database_PostgreSQL_Server.svg;" vertex="1" parent="Uxrc10yOzOFZdtbdVySu-33">
          <mxGeometry x="195" y="9" width="48" height="64" as="geometry" />
        </mxCell>
        <mxCell id="Uxrc10yOzOFZdtbdVySu-36" value="" style="group" vertex="1" connectable="0" parent="Uxrc10yOzOFZdtbdVySu-33">
          <mxGeometry width="155" height="135" as="geometry" />
        </mxCell>
        <mxCell id="Uxrc10yOzOFZdtbdVySu-37" value="" style="outlineConnect=0;dashed=0;verticalLabelPosition=bottom;verticalAlign=top;align=center;html=1;shape=mxgraph.aws3.ec2;fillColor=#F58534;gradientColor=none;" vertex="1" parent="Uxrc10yOzOFZdtbdVySu-36">
          <mxGeometry x="20" width="76.5" height="93" as="geometry" />
        </mxCell>
        <mxCell id="Uxrc10yOzOFZdtbdVySu-38" value="EC2 &lt;br&gt;Review/Recommendation &lt;br&gt;Service" style="text;html=1;align=center;verticalAlign=middle;resizable=0;points=[];autosize=1;strokeColor=none;fillColor=none;" vertex="1" parent="Uxrc10yOzOFZdtbdVySu-36">
          <mxGeometry x="-15" y="75" width="160" height="60" as="geometry" />
        </mxCell>
        <mxCell id="Uxrc10yOzOFZdtbdVySu-39" style="edgeStyle=orthogonalEdgeStyle;rounded=0;orthogonalLoop=1;jettySize=auto;html=1;entryX=0.04;entryY=0.587;entryDx=0;entryDy=0;entryPerimeter=0;" edge="1" parent="Uxrc10yOzOFZdtbdVySu-33" source="Uxrc10yOzOFZdtbdVySu-37" target="Uxrc10yOzOFZdtbdVySu-35">
          <mxGeometry relative="1" as="geometry" />
        </mxCell>
        <mxCell id="Uxrc10yOzOFZdtbdVySu-41" value="" style="points=[];aspect=fixed;html=1;align=center;shadow=0;dashed=0;fillColor=#FF6A00;strokeColor=none;shape=mxgraph.alibaba_cloud.kafka;" vertex="1" parent="1">
          <mxGeometry x="755" y="216.5" width="56.699999999999996" height="42" as="geometry" />
        </mxCell>
        <mxCell id="Uxrc10yOzOFZdtbdVySu-42" value="Kafka" style="text;html=1;align=center;verticalAlign=middle;resizable=0;points=[];autosize=1;strokeColor=none;fillColor=none;" vertex="1" parent="1">
          <mxGeometry x="755" y="256.75" width="50" height="30" as="geometry" />
        </mxCell>
        <mxCell id="Uxrc10yOzOFZdtbdVySu-43" style="edgeStyle=orthogonalEdgeStyle;rounded=0;orthogonalLoop=1;jettySize=auto;html=1;entryX=0.339;entryY=0.174;entryDx=0;entryDy=0;entryPerimeter=0;exitX=0.489;exitY=-0.073;exitDx=0;exitDy=0;exitPerimeter=0;" edge="1" parent="1" source="Uxrc10yOzOFZdtbdVySu-2" target="Uxrc10yOzOFZdtbdVySu-41">
          <mxGeometry relative="1" as="geometry" />
        </mxCell>
        <mxCell id="Uxrc10yOzOFZdtbdVySu-45" style="edgeStyle=orthogonalEdgeStyle;rounded=0;orthogonalLoop=1;jettySize=auto;html=1;" edge="1" parent="1" source="Uxrc10yOzOFZdtbdVySu-5" target="Uxrc10yOzOFZdtbdVySu-37">
          <mxGeometry relative="1" as="geometry">
            <Array as="points">
              <mxPoint x="380" y="250" />
              <mxPoint x="380" y="217" />
            </Array>
          </mxGeometry>
        </mxCell>
        <mxCell id="Uxrc10yOzOFZdtbdVySu-46" style="edgeStyle=orthogonalEdgeStyle;rounded=0;orthogonalLoop=1;jettySize=auto;html=1;entryX=0;entryY=0.5;entryDx=0;entryDy=0;entryPerimeter=0;" edge="1" parent="1" source="Uxrc10yOzOFZdtbdVySu-5" target="Uxrc10yOzOFZdtbdVySu-1">
          <mxGeometry relative="1" as="geometry" />
        </mxCell>
        <mxCell id="Uxrc10yOzOFZdtbdVySu-47" style="edgeStyle=orthogonalEdgeStyle;rounded=0;orthogonalLoop=1;jettySize=auto;html=1;entryX=0;entryY=0.5;entryDx=0;entryDy=0;entryPerimeter=0;" edge="1" parent="1" target="Uxrc10yOzOFZdtbdVySu-16">
          <mxGeometry relative="1" as="geometry">
            <mxPoint x="320" y="250" as="sourcePoint" />
            <Array as="points">
              <mxPoint x="320" y="250" />
              <mxPoint x="383" y="250" />
              <mxPoint x="383" y="479" />
            </Array>
          </mxGeometry>
        </mxCell>
        <mxCell id="Uxrc10yOzOFZdtbdVySu-48" style="edgeStyle=orthogonalEdgeStyle;rounded=0;orthogonalLoop=1;jettySize=auto;html=1;entryX=0;entryY=0.5;entryDx=0;entryDy=0;entryPerimeter=0;" edge="1" parent="1" source="Uxrc10yOzOFZdtbdVySu-5" target="Uxrc10yOzOFZdtbdVySu-23">
          <mxGeometry relative="1" as="geometry">
            <mxPoint x="320" y="292" as="sourcePoint" />
            <Array as="points">
              <mxPoint x="380" y="250" />
              <mxPoint x="380" y="629" />
            </Array>
          </mxGeometry>
        </mxCell>
        <mxCell id="Uxrc10yOzOFZdtbdVySu-51" style="edgeStyle=orthogonalEdgeStyle;rounded=0;orthogonalLoop=1;jettySize=auto;html=1;" edge="1" parent="1">
          <mxGeometry relative="1" as="geometry">
            <mxPoint x="240" y="240" as="sourcePoint" />
            <mxPoint x="100" y="240" as="targetPoint" />
          </mxGeometry>
        </mxCell>
        <mxCell id="Uxrc10yOzOFZdtbdVySu-52" value="" style="group" vertex="1" connectable="0" parent="1">
          <mxGeometry x="425" y="300" width="243" height="120" as="geometry" />
        </mxCell>
        <mxCell id="Uxrc10yOzOFZdtbdVySu-53" value="" style="edgeStyle=orthogonalEdgeStyle;rounded=0;orthogonalLoop=1;jettySize=auto;html=1;" edge="1" parent="Uxrc10yOzOFZdtbdVySu-52" source="Uxrc10yOzOFZdtbdVySu-54" target="Uxrc10yOzOFZdtbdVySu-56">
          <mxGeometry relative="1" as="geometry">
            <Array as="points">
              <mxPoint x="165" y="47" />
              <mxPoint x="165" y="47" />
            </Array>
          </mxGeometry>
        </mxCell>
        <mxCell id="Uxrc10yOzOFZdtbdVySu-54" value="" style="image;aspect=fixed;html=1;points=[];align=center;fontSize=12;image=img/lib/azure2/databases/Azure_Database_PostgreSQL_Server.svg;" vertex="1" parent="Uxrc10yOzOFZdtbdVySu-52">
          <mxGeometry x="195" y="9" width="48" height="64" as="geometry" />
        </mxCell>
        <mxCell id="Uxrc10yOzOFZdtbdVySu-55" value="" style="group" vertex="1" connectable="0" parent="Uxrc10yOzOFZdtbdVySu-52">
          <mxGeometry width="145" height="120" as="geometry" />
        </mxCell>
        <mxCell id="Uxrc10yOzOFZdtbdVySu-56" value="" style="outlineConnect=0;dashed=0;verticalLabelPosition=bottom;verticalAlign=top;align=center;html=1;shape=mxgraph.aws3.ec2;fillColor=#F58534;gradientColor=none;" vertex="1" parent="Uxrc10yOzOFZdtbdVySu-55">
          <mxGeometry x="20" width="76.5" height="93" as="geometry" />
        </mxCell>
        <mxCell id="Uxrc10yOzOFZdtbdVySu-57" value="EC2 MarketPlace Service" style="text;html=1;align=center;verticalAlign=middle;resizable=0;points=[];autosize=1;strokeColor=none;fillColor=none;" vertex="1" parent="Uxrc10yOzOFZdtbdVySu-55">
          <mxGeometry x="-15" y="90" width="160" height="30" as="geometry" />
        </mxCell>
        <mxCell id="Uxrc10yOzOFZdtbdVySu-58" style="edgeStyle=orthogonalEdgeStyle;rounded=0;orthogonalLoop=1;jettySize=auto;html=1;entryX=0.04;entryY=0.587;entryDx=0;entryDy=0;entryPerimeter=0;" edge="1" parent="Uxrc10yOzOFZdtbdVySu-52" source="Uxrc10yOzOFZdtbdVySu-56" target="Uxrc10yOzOFZdtbdVySu-54">
          <mxGeometry relative="1" as="geometry" />
        </mxCell>
        <mxCell id="Uxrc10yOzOFZdtbdVySu-59" style="edgeStyle=orthogonalEdgeStyle;rounded=0;orthogonalLoop=1;jettySize=auto;html=1;entryX=0;entryY=0.5;entryDx=0;entryDy=0;entryPerimeter=0;" edge="1" parent="1" source="Uxrc10yOzOFZdtbdVySu-5" target="Uxrc10yOzOFZdtbdVySu-56">
          <mxGeometry relative="1" as="geometry" />
        </mxCell>
        <mxCell id="Uxrc10yOzOFZdtbdVySu-60" value="Internet" style="text;html=1;align=center;verticalAlign=middle;whiteSpace=wrap;rounded=0;" vertex="1" parent="1">
          <mxGeometry x="29.75" y="264.5" width="60" height="30" as="geometry" />
        </mxCell>
        <mxCell id="Uxrc10yOzOFZdtbdVySu-62" style="edgeStyle=orthogonalEdgeStyle;rounded=0;orthogonalLoop=1;jettySize=auto;html=1;exitX=1;exitY=0.21;exitDx=0;exitDy=0;exitPerimeter=0;entryX=0.075;entryY=0.698;entryDx=0;entryDy=0;entryPerimeter=0;" edge="1" parent="1" source="Uxrc10yOzOFZdtbdVySu-56" target="Uxrc10yOzOFZdtbdVySu-41">
          <mxGeometry relative="1" as="geometry">
            <Array as="points">
              <mxPoint x="522" y="290" />
              <mxPoint x="759" y="290" />
            </Array>
          </mxGeometry>
        </mxCell>
        <mxCell id="Uxrc10yOzOFZdtbdVySu-63" style="edgeStyle=orthogonalEdgeStyle;rounded=0;orthogonalLoop=1;jettySize=auto;html=1;exitX=1;exitY=0.79;exitDx=0;exitDy=0;exitPerimeter=0;entryX=0.075;entryY=0.555;entryDx=0;entryDy=0;entryPerimeter=0;" edge="1" parent="1" source="Uxrc10yOzOFZdtbdVySu-37" target="Uxrc10yOzOFZdtbdVySu-41">
          <mxGeometry relative="1" as="geometry">
            <Array as="points">
              <mxPoint x="641" y="233" />
              <mxPoint x="641" y="240" />
            </Array>
          </mxGeometry>
        </mxCell>
      </root>
    </mxGraphModel>
  </diagram>
</mxfile>
